<?xml version="1.0" encoding="UTF-8"?>
<!DOCTYPE svg PUBLIC "-//W3C//DTD SVG 1.1//EN"
"http://www.w3.org/Graphics/SVG/1.1/DTD/svg11.dtd">
<svg x="0px" xmlns="http://www.w3.org/2000/svg" xmlns:xlink="http://www.w3.org/1999/xlink" viewport-fill="none" y="0px" viewBox="0, 0, 480, 690" version="1.1" height="690" width="480">
<defs>
	<path id="Suite" d="M40 95H60Q51 71 55 55C63 65 97 88 95 45 97 12 69 35 58 46 69 35 81 4 50 5 12 3 31 35 42 46 31 35 3 12 5 45 3 88 37 65 45 55Q49 71 40 95Z"/>
	<text id="Label" font-size="90" font-family="Times">J</text>
	<g stroke="black" color="#DCDCDC" id="crown" stroke-width="1" vector-effect="non-scaling-stroke" fill="#DCDCDC" stroke-linecap="round">
		<path fill="gold" d="M30 120Q24 81 0 57 22 79 35 36 79 83 90 10 101 83 145 36 158 79 180 57 156 81 150 120C122 105 58 105 30 120Z"/>
		<path fill="black" d="M0 57Q87-40 180 57 158 79 145 36 101 83 90 10 79 83 35 36 22 79 0 57Z" stroke="white" stroke-width="2"/>

		<path transform="translate(61, 51)" d="M0 0m27 54h-4c2-11 6-15 2-14-23 14-23-31-2-19 4 4 5 1 2-2-27-28 35-27 8 0-3 3-3 6 2 2 21-14 21 33-1 20-3-4-1 2 1 13Z" fill="black" stroke="white" stroke-width="2"/>
	</g>
	</defs>
<g>

	<path fill="white" stroke="grey" d="M 240 0 H 470 A 10 10 0 0 1 480 10 V 680 A 10 10 0 0 1 470 690 H 10 A 10 10 0 0 1 0 680 V 10 A 10 10 0 0 1 10 0Z" />
<rect fill="none" stroke="black" x="75" width="330" height="530" y="80"/>

<use xlink:href="#Suite" transform="translate(10, 110), scale(.6)"/>
<use xlink:href="#Suite" transform="translate(472, 580), scale(.6), rotate(180)"/>
<use xlink:href="#Label" transform="translate(24, 102)"/>
<use xlink:href="#Label" transform="translate(457, 590), rotate(180)"/>

    <use xlink:href="#crown" transform="translate(150, 150)"/>
    <use xlink:href="#crown" transform="translate(330, 520), rotate(180)"/>

</g>



</svg>
