<?xml version="1.0" encoding="UTF-8"?>
<!DOCTYPE svg PUBLIC "-//W3C//DTD SVG 1.1//EN"
"http://www.w3.org/Graphics/SVG/1.1/DTD/svg11.dtd">
<svg x="0px" height="103.100000" viewport-fill="none" y="0px" xmlns:xlink="http://www.w3.org/1999/xlink" width="110.355624" xmlns="http://www.w3.org/2000/svg" version="1.1" viewBox="-11.516165, 0.000000, 110.355624, 103.100000">
<g stroke="black" xml:id="LAYER"  vector-effect="non-scaling-stroke" stroke-width="1" fill="currentColor" stroke-linecap="round">
<path xml:id="PATH" d="M21 95C3 66-6 35 24 18 53 7 62 13 75 36 38 55 88 86 60 95 44 98 39 75 21 95ZM38 62a7 7 0 1 0 1 0ZM53 76 89 65A2 2 0 0 1 91 68L86 70 86 75 91 76A2 2 0 0 1 93 79L53 82ZM82 71 82 76 60 78Z"/>
</g>
</svg>
