<?xml version="1.0" encoding="UTF-8"?>
<!DOCTYPE svg PUBLIC "-//W3C//DTD SVG 1.1//EN"
"http://www.w3.org/Graphics/SVG/1.1/DTD/svg11.dtd">
<svg x="0px" height="512" viewport-fill="white" y="0px" xmlns:xlink="http://www.w3.org/1999/xlink" width="512" xmlns="http://www.w3.org/2000/svg" version="1.1" viewBox="0, 0, 512, 512">
<defs id="Defs">
<path id="Butterfly Shape" d="M44 42C38 29 42 8 5 5 13 53 14 42 21 47-18 113 43 92 45 66 45 59 45 47 44 42ZM55 66C57 92 106 109 79 47 86 42 87 53 95 5 58 8 62 29 56 42 55 47 55 47 55 66ZM56 42A7 7 0 1 0 44 42C45 47 46 59 47 66Q50 95 53 66C54 59 55 47 56 42ZM45 33.5Q46 24 37 15 A1 1 0 1 1 37.5 14.5Q45 19 46 32.5ZM55 33.5Q54 24 63 15A1 1 0 1 0 62.5 14.5Q55 20 54 32.5Z"/>
<path id="Tick" d="M46 29C27 24 41 25 45 12L42 23 50 29 58 23 55 12C59 25 73 24 54 29A17 22 0 0 1 63 38L76 30 90 43 86 46 74 36 64 42A17 22 0 0 1 69 53L88 53 95 65 89 66 85 59 69 59A17 22 0 0 1 65 70L81 76 87 91 80 91 76 80 60 75A17 22 0 0 1 50 85 17 22 0 0 1 40 75L24 80  20 91 13 91 19 76 35 70A17 22 0 0 1 31 59L15 59 11 66 5 65 12 53 31 53A17 22 0 0 1 36 42L26 36 14 46 10 43 24 30 37 38A17 22 0 0 1 46 29Z "/>
<path id="Bat" d="M11 31a7 7 0 0 1 7 7 10 10 0 0 1 10 10 12 12 0 0 1 12 12c9-17 4 1 12 6 7-7 6-22 11-5a12 12 0 0 1 12-12 10 10 0 0 1 10-10 7 7 0 0 1 7-7c-9-11-21-16-29 7-8-3 7-11-4-14Q57 26 62 17 59 14 52 20H50 48Q41 14 38 17 38 16 42 24C28 27 51 42 40 39 32 23 23 15 11 31z"/>
<path id="Moth" d="M10 25Q-0 3 23 7C23 8 40 11 47 40a6 6 0 0 1 12 0C60 11 77 8 77 7Q95 3 90 25C86 36 103 44 74 57Q89 68 77 82 69 94 57 81L50 95 43 81Q31 94 23 82 11 68 26 57C-3 44 14 36 10 25Z"/>
<g id="Ghost">
<path d="M10 95C5 42 26 11 48 11 62 11 87 2 90 95Q80 72 64 90C65 72 45 72 36 90Q20 72 10 95Z"/>
<path fill="black" d="M37 44a9 11 0 1 1 1 0Zm24 0a9 11 0 1 1 1 0Z"/>
</g>
<linearGradient id="leftsidetoblack_#87CEEB" color="currentColor">
<stop stop-color="currentColor" offset="0"/>
<stop stop-color="currentColor" offset=".25"/>
<stop stop-color="black" offset="1"/>
</linearGradient>
</defs>
<g>
<g>
<rect y="0" height="512" width="512" fill="currentColor" x="0"/>
<path d="M 0 256 l 512 0 M 256 0 v 512" stroke="#bad0aa" stroke-width="3" fill="none" vector-effect="non-scaling-stroke"/>
<path d="M6 6 v500 M56 6 v500 M106 6 v500M156 6 v500 M206 6 v500 M306 6 v500 M356 6 v500M406 6v500M456 6 v500 M 506 6 v500" stroke="#bad0aa" stroke-width="0.5" fill="none" vector-effect="non-scaling-stroke"/>
<path d="M6 6 h500 M6 56  h500 M 6 106h500M 6 156h500 M 6 206h500 M 6 306 h500 M 6 356h500M6 406h500M 6 456h500 M  6 506 h 500" stroke="#bad0aa" stroke-width="0.5" fill="none" vector-effect="non-scaling-stroke"/>
</g>
<g fill="url(#leftsidetoblack_#87CEEB)" color="currentColor" stroke="none">
<use fill="currentColor" xlink:href="#Butterfly Shape" transform="matrix(3.0321 0 0 3.0321 103.946 108.609)" fill-opacity="0.5" opacity="0.80" color="#ffd700"/>
<use color="#0000CD" fill-opacity="0.25" xlink:href="#Tick" transform="matrix(0.994491 0 0 0.994491 12.0275 19.6333)" fill="#0000CD" opacity="0.60"/>
<use xlink:href="#Bat" transform="matrix(1.38807 0 0 1.38807 367.064 19.5557)" fill-opacity="0.25" opacity="0.60"/>
<use color="#ff00ff" xlink:href="#Moth" transform="matrix(1.06022 0 0 1.06022 12.3226 382.622)" fill="#ff00ff" fill-opacity="0.25" opacity="0.60"/>
<use opacity="0.60" fill-opacity="0.25" xlink:href="#Ghost" transform="matrix(1.03276 0 0 1.03276 395.976 381.162)" fill="#32CD32" color="#32CD32"/>
</g>
</g>
</svg>
