<?xml version="1.0" encoding="UTF-8"?>
<!DOCTYPE svg PUBLIC "-//W3C//DTD SVG 1.1//EN"
"http://www.w3.org/Graphics/SVG/1.1/DTD/svg11.dtd">
<svg viewport-fill="none" xmlns:xlink="http://www.w3.org/1999/xlink"  xmlns="http://www.w3.org/2000/svg" version="1.1" viewBox="0, 0, 100, 100">
<g stroke-linecap="round" stroke="currentColor" stroke-width="2" fill="none" vector-effect="non-scaling-stroke">
<path d="M20 5H80A15 15 0 0 1 95 20V80A15 15 0 0 1 80 95H20A15 15 0 0 1 5 80V20A15 15 0 0 1 20 5Z"/>
<path stroke-opacity="0.66" stroke-width="1" d="M25 15H75A10 10 0 0 1 85 25V75A10 10 0 0 1 75 85H25A10 10 0 0 1 15 75V25A10 10 0 0 1 25 15Z"/>
</g>
</svg>
