<?xml version="1.0" encoding="UTF-8"?>
<!DOCTYPE svg PUBLIC "-//W3C//DTD SVG 1.1//EN"
"http://www.w3.org/Graphics/SVG/1.1/DTD/svg11.dtd">
<svg x="0px" xmlns="http://www.w3.org/2000/svg" xmlns:xlink="http://www.w3.org/1999/xlink" viewport-fill="none" y="0px" viewBox="0, 0, 480, 690" version="1.1" height="690" width="480">
  <defs>
    <path id="Suite" d="M 5 50 L 50 5 95 50 50 95 5 50 Z" />
    <text id="Label" font-size="90" font-family="Times">Q</text>
	<g stroke="black" color="none" id="crown" stroke-width="2" vector-effect="non-scaling-stroke" fill="none" stroke-linecap="round">
		<path id="PATH" d="M50 120V78C-18 57-10 9 90 10 190 9 198 57 130 78V120Q90 100 50 120Z" fill="red"/>
		<path d="M50 78C65 74 66 66 90 66 114 66 115 74 130 78" fill="red"/>
		<path d="M90 60l22-22-22-22-22 22 22 22Zm0 6a28 28 0 1 1 1 0Z" fill="gold" />
		<path d="M 15 78 l10-10 10 10 -10 10z M 15 98 l10-10 10 10 -10 10z M 15 118 l10-10 10 10 -10 10z M 145 78 l10-10 10 10 -10 10z M 145 98 l10-10 10 10 -10 10z M 145 118 l10-10 10 10 -10 10z" fill="red" />
	</g>
  </defs>
  <g>

    <path fill="white" d="M 240 0 H 470 A 10 10 0 0 1 480 10 V 680 A 10 10 0 0 1 470 690 H 10 A 10 10 0 0 1 0 680 V 10 A 10 10 0 0 1 10 0Z" stroke="gray" />
<rect fill="none" stroke="black" x="75" width="330" height="530" y="80"/>
    <rect fill="none" stroke="black" x="75" width="330" height="530" y="80"/>

    <use xlink:href="#Suite" transform="translate(12, 118), scale(.55, .70)" fill="Red"/>
    <use xlink:href="#Suite" transform="translate(467, 575), scale(.55, .7), rotate(180)" fill="Red"/>
    <use xlink:href="#Label" transform="translate(5, 100)"/>
    <use xlink:href="#Label" transform="translate(475, 590), rotate(180)"/>
    <use xlink:href="#crown" transform="translate(150, 150)"/>
    <use xlink:href="#crown" transform="translate(330, 520), rotate(180)"/>

    </g>



</svg>
